<svg xmlns="http://www.w3.org/2000/svg" width="40" height="40" viewBox="0 0 40 40"><path style="stroke:none;fill-rule:nonzero;fill:#000;fill-opacity:1" d="M12.57.078c-2.578.11-4.343.438-5.836 1.078-1.398.602-2.226 1.157-3.257 2.18C2.086 4.719 1.219 6.273.672 8.359.187 10.203.078 12.32.078 20c0 7.555.102 9.695.555 11.54 1.125 4.585 4.484 7.507 9.43 8.187 1.414.187 4.382.273 10.054.273 5.274 0 8.313-.078 9.68-.242 2.797-.328 4.984-1.297 6.71-2.953 1.946-1.875 2.977-4.117 3.352-7.313.149-1.25.149-17.922 0-19.101-.304-2.391-1.015-4.36-2.14-5.868-.555-.75-1.742-1.882-2.485-2.39C33.554 1 31.531.375 28.867.148 27.61.047 14.703-.008 12.57.078Zm16.9 3.774c2.226.328 3.476.882 4.68 2.078.78.78 1.21 1.468 1.593 2.53.64 1.798.703 2.75.703 11.58 0 5.085-.03 7.53-.101 8.35-.227 2.712-.766 4.172-2.032 5.524-1.32 1.406-2.968 2.102-5.523 2.336-1.383.133-12.812.195-15.445.086-1.188-.047-2.43-.125-2.766-.172-1.476-.203-2.906-.727-3.797-1.375-.554-.414-1.445-1.383-1.773-1.93-.656-1.093-1.047-2.632-1.18-4.586-.234-3.546-.156-15.718.11-17.734.28-2.086.93-3.492 2.156-4.68 1.343-1.304 3.11-1.937 5.843-2.109.594-.031 4.586-.055 8.883-.04 6.664.017 7.938.032 8.649.142Zm0 0"/><path style="stroke:none;fill-rule:nonzero;fill:#000;fill-opacity:1" d="M29.703 7.188c-.883.445-1.305 1.132-1.305 2.148 0 .734.172 1.172.672 1.672.5.492.938.672 1.672.672.524 0 .695-.032 1.07-.22.79-.39 1.235-1.07 1.297-1.976.055-.804-.125-1.273-.68-1.836-.515-.515-.968-.695-1.726-.695-.422 0-.61.047-1 .234ZM18.25 9.89c-2.055.376-3.875 1.337-5.406 2.876-2.031 2.023-3.008 4.39-3.008 7.234 0 1.719.32 3.133 1.031 4.555 2.188 4.343 7 6.57 11.68 5.406 1.844-.461 3.265-1.258 4.648-2.594 1.242-1.203 2.078-2.515 2.602-4.086.375-1.133.515-2.008.515-3.281 0-1.266-.14-2.148-.507-3.258-.5-1.5-1.227-2.687-2.36-3.86-1.547-1.593-3.476-2.624-5.601-3-.867-.148-2.75-.148-3.594.009Zm3.094 3.579c3.578.687 5.953 4.203 5.265 7.804-.422 2.18-2.023 4.118-4.07 4.907-1 .39-1.578.484-2.734.437-.82-.031-1.14-.078-1.68-.25-2.367-.75-4.094-2.664-4.578-5.07-.188-.93-.117-2.375.164-3.25.734-2.328 2.695-4.102 5.031-4.57.695-.141 1.899-.141 2.602-.008Zm0 0"/></svg>