<svg version="1.0" xmlns="http://www.w3.org/2000/svg" width="25" height="25" viewBox="0 0 18.75 18.75"><path d="m2.399.022-.275.055C1.329.238.553.897.212 1.703c-.205.487-.194.044-.194 7.672s-.011 7.185.194 7.672a2.86 2.86 0 0 0 1.912 1.633c.3.077 14.202.077 14.502 0a2.86 2.86 0 0 0 2.054-2.054c.077-.3.077-14.202 0-14.502-.216-.842-.831-1.571-1.615-1.904-.512-.216.07-.198-7.58-.205-3.856-.004-7.046 0-7.086.007zM16.3 1.135c.659.124 1.19.655 1.315 1.315.051.271.051 13.579 0 13.85a1.666 1.666 0 0 1-1.315 1.315c-.271.051-13.579.051-13.85 0A1.666 1.666 0 0 1 1.135 16.3c-.051-.271-.051-13.579 0-13.85.121-.645.655-1.187 1.285-1.311.238-.048 13.634-.048 13.879-.004z"/><path d="M14.542 2.274c-.831.161-1.432 1.018-1.293 1.849.117.718.659 1.26 1.377 1.377 1.058.176 2.036-.802 1.86-1.86a1.649 1.649 0 0 0-1.945-1.366zm.582 1.132c.165.084.293.293.293.476s-.128.392-.293.476a.69.69 0 0 1-.256.073.577.577 0 0 1-.476-.293.511.511 0 0 1 0-.513c.136-.267.454-.363.732-.22zm-6.445 1.08a4.876 4.876 0 0 0-2.787 1.406 4.912 4.912 0 0 0-.63 6.211 5.516 5.516 0 0 0 1.384 1.384 4.981 4.981 0 0 0 3.179.802 4.847 4.847 0 0 0 3.032-1.432 4.912 4.912 0 0 0 .63-6.211 5.516 5.516 0 0 0-1.384-1.384 4.946 4.946 0 0 0-3.424-.776zm1.22 1.084a3.866 3.866 0 0 1 3.168 2.761c.586 2.022-.604 4.146-2.648 4.735-2.022.586-4.146-.604-4.735-2.648-.696-2.406 1.132-4.852 3.647-4.885.168-.004.425.015.568.037z"/></svg>