<svg xmlns="http://www.w3.org/2000/svg" width="90" height="90" viewBox="0 0 90 90"><path style="stroke:none;fill-rule:nonzero;fill:#000;fill-opacity:1" d="M42.81 15.75c-.576.357-.75.698-.75 1.459v.645l.573.66c.581.675.756 1.133.633 1.653a1.476 1.476 0 0 1-.744.937c-.195.1-.323.246-.323.359 0 .555.978.135 1.389-.599.51-.885.315-1.828-.57-2.782-.351-.381-.45-.563-.45-.802 0-.504.181-.82.609-1.056.476-.257.55-.363.405-.555-.159-.217-.352-.189-.774.081Zm3.303-.093c-1.065.527-1.212 2.097-.28 2.888.409.352.732 1.09.661 1.488a1.395 1.395 0 0 1-.71 1.032c-.433.246-.48.328-.321.575.117.18.135.18.498 0 .456-.24.791-.609.972-1.113.3-.768.123-1.425-.609-2.298-.476-.568-.534-.679-.534-1.071 0-.346.06-.48.276-.721.158-.165.381-.305.492-.328.147-.017.199-.099.199-.287 0-.305-.24-.369-.645-.165Zm2.929.069c-.603.341-.937 1.072-.809 1.81.036.258.224.557.55.955.627.72.815 1.171.685 1.653-.123.462-.24.621-.702.95-.435.305-.469.386-.246.591.216.199.919-.246 1.27-.809.522-.833.282-2.044-.544-2.754-.675-.575-.575-1.53.21-1.94.294-.158.387-.258.37-.409-.036-.294-.323-.3-.786-.048Zm-10.786 9.446c-.387 1.185-.415 1.23-.663 1.23-.298 0-.27-.081-.462 1.413-.165 1.3-.175 1.26.45 1.26h.546l.053.381c.03.216.188 1.54.334 2.958.158 1.407.339 3.123.415 3.804.071.679.305 2.782.504 4.675.206 1.887.387 3.603.415 3.797.03.199.129 1.143.229 2.109.105.955.204 1.899.234 2.075l.053.341h11.49l.053-.393c.064-.427 2.04-18.111 2.139-19.107l.064-.639h1.178l-.064-.369a40.005 40.005 0 0 1-.163-1.313l-.099-.937-.446-.053-.44-.048-.486-1.183-.494-1.183-7.224-.018-7.218-.035Zm14.724.224c.195.462.33.885.31.926-.022.04-3.322.082-7.323.082-5.889 0-7.29-.018-7.325-.129-.036-.117.333-1.371.48-1.635.024-.042 3.075-.082 6.774-.082h6.72Zm1.419 1.799c.017.105.064.409.099.703l.06.51H37.683l.039-.258c.024-.141.071-.451.1-.698l.064-.427h8.226c7.77 0 8.238.006 8.286.17Zm-.962 2.209c0 .188-.064.825-.135 1.417-.075.597-.141 1.113-.141 1.155 0 .045-3.158.081-7.03.081h-7.026l-.123-1.113c-.064-.603-.135-1.272-.165-1.488l-.057-.381h14.678Zm-.387 3.585c-.022.363-.022.363-.937.774a4.204 4.204 0 0 0-2.379 2.742c-.48 1.787.206 3.574 1.788 4.665.563.391.638.573.48 1.23l-.053.24H40.281l-.058-.393c-.035-.206-.262-2.303-.514-4.641-.258-2.343-.476-4.418-.504-4.605l-.06-.328H53.08Zm-1.178 10.488c0 .135-.035.54-.093.909a31.32 31.32 0 0 0-.135 1.23c-.042.31-.123 1.072-.195 1.688a28.535 28.535 0 0 0-.127 1.214c0 .04-2.345.081-5.197.081h-5.197l-.053-.391a85.429 85.429 0 0 1-.206-1.77 65.067 65.067 0 0 0-.175-1.599l-.093-.897-.064-.685h11.537Zm-19.469 8.584c-.036.03-.064 1.377-.064 2.976v2.931l1.734-.042c1.688-.03 1.734-.04 2.145-.31.498-.328.674-.708.645-1.389-.008-.498-.265-1.054-.581-1.3l-.183-.152.206-.323c.276-.44.341-1.079.147-1.477-.195-.405-.675-.773-1.137-.885-.422-.105-2.825-.121-2.912-.028Zm2.565 1.125c.199.105.346.282.387.435.105.514-.287.813-1.155.86-.544.036-.561.024-.615-.246a4.4 4.4 0 0 1-.04-.75l.03-.468h.532c.305 0 .669.071.863.17Zm.264 2.397c.305.123.528.514.451.802-.071.339-.504.544-1.29.603-.825.077-.865.036-.849-.873l.024-.639h.714c.399 0 .82.048.95.105Zm8.256-.615v2.976h3.96v-.919h-2.67v-1.441h2.395v-1.143l-1.171.024-1.178.01-.03-.679-.022-.679h2.677v-1.131h-3.96Zm5.806-.095a220.185 220.185 0 0 0-1.183 2.988c-.017.053.24.082.593.064l.627-.03.14-.597.135-.585h2.46l.481 1.23h.633c.345 0 .627-.03.627-.06 0-.063-.809-2.002-1.823-4.388l-.656-1.512h-.885Zm2.093-.246.375 1.107-.827.036c-.463.006-.849.006-.867-.012-.046-.04.82-2.232.885-2.232.03 0 .222.498.433 1.101Zm3.345.328v2.988l.99.024c1.431.03 1.594.01 2.157-.229a3.18 3.18 0 0 0 1.476-1.313c.175-.323.21-.532.224-1.305.006-.576-.042-1.056-.123-1.284-.195-.557-.716-1.08-1.448-1.448-.627-.341-.698-.352-1.963-.381l-1.313-.04Zm2.567-1.675c1.225.69 1.383 2.535.276 3.257-.492.316-1.143.516-1.425.44l-.222-.058v-3.901h.44c.3 0 .609.087.931.264Zm-18.785-1.056-.417.123-.03 2.31c-.015 1.277 0 2.56.03 2.847l.06.544h1.083l.06-.555c.035-.3.04-.81.022-1.133l-.024-.575h.375c.381 0 .387.012 1.014.986.341.544.675 1.048.738 1.113.082.099.774.141 1.161.071.045 0-.27-.522-.679-1.161-.558-.831-.721-1.16-.627-1.189.069-.035.327-.27.563-.527.532-.599.645-1.119.369-1.8-.323-.831-1.061-1.188-2.397-1.178-.492 0-1.072.06-1.3.123Zm2.121.996c.375.217.504.48.44.933-.046.363-.504.609-1.189.627l-.585.035v-1.8h.485c.306 0 .615.072.851.206Zm-7.113 6.37c-.546.04-1.032.111-1.09.152-.064.04-.093 1.552-.093 4.582v4.512l.784.01c.435.006.849.006.919.006.077 0 .188 0 .235-.006.053-.01.087-.597.087-1.535v-1.506l1.061-.024c1.542-.03 2.425-.305 3.169-1.025.599-.568.756-1.008.774-2.179.018-.845-.006-1.05-.181-1.407-.252-.514-1.119-1.196-1.815-1.43-.582-.193-2.498-.274-3.851-.152Zm2.823 1.857c.798.246 1.173 1.061.82 1.74-.28.522-.627.657-1.758.698l-1.043.04v-2.589h.815c.44 0 .968.053 1.165.111Zm4.748 2.702v4.663l.948.04c.516.024.95.042.962.036.046-.012.053-.937.046-4.963l-.022-4.44h-1.935Zm3.502-3.74v.927h2.58v7.488l.919.03c.51.022.96.022.996.01.035-.018.058-1.706.035-3.75l-.018-3.726 1.441-.053 1.435-.054v-1.746l-3.698-.03-3.69-.022Zm8.754 3.751v4.677h6.276l-.03-.75-.03-.739-2.091-.035-2.097-.018v-2.262h3.685l.018-.544c.006-.585.006-.915-.012-.996 0-.03-.825-.053-1.835-.053h-1.816l-.024-1.054c-.018-.95-.012-1.05.135-1.061.093 0 1.043-.012 2.103-.018l1.934-.024.03-.901.028-.897h-6.275Zm-21.011 9.187v.627h.415c.305 0 .415-.04.415-.158 0-.099-.093-.153-.287-.153-.159 0-.258-.04-.224-.099.03-.064.159-.105.288-.105.123 0 .222-.053.222-.105 0-.06-.099-.1-.228-.1-.305 0-.3-.188 0-.228.405-.048.292-.235-.159-.264l-.444-.036ZM34.7 73.2c-.095.26-.206.465-.246.465-.048 0-.089.111-.089.244 0 .276.234.435.316.206.071-.206.609-.18.744.03.064.093.159.135.21.093.153-.099.143-.544-.005-.603-.064-.03-.175-.24-.24-.476-.082-.339-.147-.42-.323-.42-.165 0-.252.105-.369.462Zm.486.383c.012.053-.053.081-.129.081-.147 0-.175-.093-.071-.369.053-.165.064-.165.129.018.036.105.071.228.071.27Zm1.828-.301c-.195.669-.195.692-.018.692.071 0 .135-.053.135-.105 0-.141.334-.135.55.024.27.18.3.071.111-.546-.135-.45-.21-.567-.391-.585-.206-.036-.252.03-.387.521Zm.486.071c0 .053-.035.105-.095.105-.045 0-.087-.053-.087-.105 0-.058.04-.099.087-.099.06 0 .095.04.095.099Zm3.315 0c0 .528.03.621.165.621.089 0 .252-.158.369-.339l.206-.328v.341c0 .262.036.333.159.305.145-.03.18-.3.129-1.038-.024-.27-.206-.216-.48.153l-.26.341-.01-.341c0-.222-.048-.328-.135-.328-.113 0-.141.135-.141.615Zm3.963 0c0 .546.017.621.188.621.135 0 .18-.075.18-.257 0-.188.048-.258.189-.258.135 0 .18.071.18.258 0 .152.054.257.131.257.204 0 .222-.135.158-1.061-.018-.287-.287-.216-.287.082 0 .188-.048.258-.181.258-.141 0-.188-.071-.188-.258 0-.181-.048-.258-.181-.258-.171 0-.188.077-.188.615Zm2.46-.071c-.193.669-.193.692-.018.692.077 0 .141-.053.141-.105 0-.141.328-.135.55.024.27.18.294.071.113-.546-.141-.45-.211-.567-.399-.585-.199-.036-.246.03-.387.521Zm.486.082c0 .053-.035.095-.087.095-.046 0-.095-.071-.095-.165 0-.081.048-.123.095-.093.053.03.087.105.087.165Zm1.665.001c0 .534.017.615.165.585.116-.028.145-.121.127-.474-.018-.397 0-.427.21-.427.211 0 .229.042.229.463 0 .339.04.462.141.462.111 0 .135-.135.135-.621v-.615h-1.008Zm2.301-.018c0 .534.026.627.165.627.082 0 .246-.158.369-.339l.199-.328v.341c0 .252.042.327.188.327.165 0 .181-.075.181-.621 0-.532-.017-.615-.175-.615-.087 0-.246.123-.339.282l-.165.287-.053-.258c-.03-.145-.129-.27-.217-.287-.135-.036-.152.053-.152.585Zm2.304-.45c0 .081.064.152.135.152.129 0 .27.345.222.575-.035.217.018.351.147.351.105 0 .141-.123.141-.462 0-.393.03-.463.18-.463.107 0 .189-.071.189-.152 0-.123-.123-.159-.51-.159s-.504.036-.504.159Zm2.21.456c0 .487.03.621.14.621.082 0 .135-.093.135-.257 0-.147.042-.258.077-.258.046 0 .135.111.199.258.064.14.206.257.3.257.198 0 .198-.04.015-.363-.14-.234-.14-.274 0-.51.183-.31.183-.363.019-.363-.071 0-.211.117-.31.258-.105.147-.217.258-.24.258-.03 0-.06-.111-.06-.258 0-.165-.053-.258-.135-.258-.111 0-.14.135-.14.615Zm2.296-.591c-.03.123-.04.984-.012 1.079.064.222.24.152.498-.195l.246-.339.012.328c0 .234.046.339.141.339.111 0 .135-.135.135-.621 0-.726-.129-.795-.498-.287l-.24.341v-.341c0-.222-.042-.328-.135-.328-.077 0-.141.012-.147.024Zm0 0"/></svg>