<svg version="1.0" xmlns="http://www.w3.org/2000/svg" width="30" height="29.941"
  viewBox="0 0 22.5 22.456">
  <path
    d="M11.197 6.077C5.04 8.548 0 10.577 0 10.591s1.191.483 2.65 1.045l2.646 1.028 1.336 3.344c.738 1.842 1.366 3.414 1.402 3.498l.061.149L9.91 17.84c1.23-1.23 1.832-1.802 1.868-1.779.031.022 1.411 1.112 3.063 2.425a375.242 375.242 0 0 0 3.059 2.413c.035.013.747-2.971 2.289-9.593a5234.077 5234.077 0 0 1 2.255-9.673c.013-.027.005-.053-.013-.053-.022 0-5.076 2.026-11.233 4.495zm9.172-1.344c-.017.07-.751 3.217-1.63 6.996s-1.604 6.877-1.608 6.882c-.031.022-6.447-5.102-6.434-5.137.013-.053 9.62-8.851 9.668-8.855.017-.005.022.048.005.114zm-6.284 1.635c-.114.102-8.315 5.032-8.371 5.027-.035 0-.54-.185-1.116-.408-.8-.316-1.028-.422-.967-.448a4038.56 4038.56 0 0 1 10.476-4.212c.009 0 0 .017-.022.039zm1.978.391a3726.8 3726.8 0 0 0-6.908 6.31c-.075.07-.194.448-.518 1.67-.228.87-.426 1.587-.435 1.596s-.369-.865-.8-1.942c-.651-1.621-.773-1.968-.721-2l4.702-2.852c2.549-1.543 4.653-2.812 4.68-2.812.022-.005.022.009 0 .031zm-5.656 8.199.277.219-.518.518c-.282.282-.523.51-.532.501-.013-.017.25-1.067.347-1.38.053-.163.044-.167.426.141z" />
</svg>