<?xml version="1.0" encoding="UTF-8"?>
<svg xmlns="http://www.w3.org/2000/svg" xmlns:xlink="http://www.w3.org/1999/xlink" width="40px" height="40px" viewBox="0 0 40 40" version="1.1">
<g id="surface1">
<path style=" stroke:none;fill-rule:nonzero;fill:rgb(0%,0%,0%);fill-opacity:1;" d="M 36.910156 5.242188 C 36.308594 4.734375 35.367188 4.660156 34.394531 5.050781 L 34.390625 5.050781 C 33.367188 5.460938 5.382812 17.464844 4.242188 17.957031 C 4.035156 18.027344 2.226562 18.703125 2.414062 20.207031 C 2.578125 21.5625 4.035156 22.125 4.210938 22.191406 L 11.324219 24.625 C 11.796875 26.195312 13.539062 31.992188 13.921875 33.230469 C 14.164062 34.003906 14.554688 35.019531 15.238281 35.226562 C 15.839844 35.460938 16.4375 35.246094 16.828125 34.941406 L 21.175781 30.910156 L 28.199219 36.386719 L 28.363281 36.484375 C 28.839844 36.695312 29.296875 36.800781 29.734375 36.800781 C 30.070312 36.800781 30.394531 36.738281 30.703125 36.613281 C 31.753906 36.179688 32.175781 35.175781 32.21875 35.0625 L 37.464844 7.800781 C 37.785156 6.347656 37.339844 5.605469 36.910156 5.242188 Z M 17.601562 25.601562 L 15.199219 32 L 12.800781 24 L 31.199219 10.398438 Z M 17.601562 25.601562 "/>
</g>
</svg>
