<svg xmlns="http://www.w3.org/2000/svg" width="40" height="40" viewBox="0 0 40 40">
  <path style="stroke:none;fill-rule:nonzero;fill:#000;fill-opacity:1" d="M.664 8.469a1.62 1.62 0 0 0-.43.32C-.68 9.781 1.633 15.711 5 21c1.688 2.64 3.016 4.352 4.5 5.797 2.055 1.992 4.203 3.351 6.555 4.133 1.492.5 2.304.64 3.906.687 1.945.055 2.766-.125 3.195-.703.157-.21.164-.336.203-2.852.04-2.234.063-2.68.172-2.93.164-.366.414-.468 1.086-.429 1.281.07 3.086 1.43 5.969 4.508.844.906 1.703 1.766 1.914 1.922.695.508.75.515 3.875.492 2.758-.023 2.813-.023 3.086-.203.656-.406.695-1.086.125-2.227-.672-1.328-2.148-3.125-4.914-5.96-.89-.907-1.664-1.758-1.734-1.891a1.513 1.513 0 0 1-.126-.594c0-.32.07-.46.633-1.273 3.657-5.336 5.242-8.024 5.617-9.524.211-.844.126-1.156-.39-1.422-.336-.172-.399-.172-3.031-.172-1.82 0-2.79.032-2.993.094-.484.14-.882.54-1.171 1.172-1.43 3.117-3.008 5.805-4.532 7.719-.656.836-1.75 1.89-2.172 2.11-.68.343-1.156.155-1.328-.509-.054-.226-.086-1.883-.086-5.015 0-4.422-.007-4.688-.148-5-.273-.586-.14-.57-4.477-.57-3.726 0-3.859.007-4.109.156-.313.195-.516.632-.453.984.031.14.265.531.523.867.594.766.82 1.211 1.016 1.961.14.54.148.883.148 4.461 0 2.43-.03 3.984-.078 4.164-.289 1.024-1.422.555-2.797-1.148-1.789-2.22-3.5-5.47-5.171-9.852-.305-.812-.625-1.25-1.04-1.445-.304-.133-.539-.149-3.101-.14-2.14 0-2.828.023-3.008.1Zm0 0"/>
</svg>
