<svg version="1.0" xmlns="http://www.w3.org/2000/svg" width="30" height="29.941"
  viewBox="0 0 22.5 22.456">
  <path
    d="M8.622 4.676c-.404.066-.712.167-.91.308-.141.092-.914.773-.936.817-.004.013.246.11.558.211.844.277.967.387 1.081.932.259 1.244.132 3.252-.242 3.735l-.083.11-.22-.233c-.558-.593-1.077-1.701-2.03-4.342-.268-.747-.51-1.384-.532-1.415-.035-.04-.628-.053-2.681-.053H-.01l.022.132c.04.185 1.055 2.733 1.503 3.766 2 4.592 3.937 7.058 6.548 8.336 1.336.655 2.571.927 4.373.958l.725.013.026-.791c.018-.527.053-.888.101-1.077.101-.378.365-.905.523-1.037.119-.101.132-.101.286-.04.193.079.734.624 1.349 1.354.782.932 1.336 1.314 2.162 1.494.404.088.562.092 2.628.092l2.197.004-.013-.461c-.018-.76-.229-1.349-.756-2.136-.387-.576-.721-.962-1.696-1.951-.51-.519-.962-1.006-1.002-1.085-.18-.356-.057-.598 1.121-2.21 1.714-2.342 2.246-3.256 2.351-4.034.022-.193-.026-.659-.097-.901-.022-.07-.193-.075-2.791-.075-2.175 0-2.769.013-2.782.053-.009.031-.11.325-.224.65-.391 1.121-1.138 2.597-1.863 3.691-.369.562-.962 1.204-1.085 1.178-.053-.009-.11-.101-.167-.277-.101-.316-.114-1.27-.053-3.142.035-1.103.035-1.191-.057-1.67A11.005 11.005 0 0 0 13.2 5c-.026-.083-.391-.18-1.112-.281-.65-.097-2.966-.123-3.467-.044zm3.221 1.336.22.031v.747c0 .409-.018 1.23-.04 1.824-.044 1.195-.009 1.617.171 2.219.189.624.527.993 1.055 1.143.554.163 1.011-.031 1.67-.699.69-.699 1.248-1.556 2.004-3.063.325-.65.686-1.446.8-1.767.026-.07.145-.075 1.635-.075.883 0 1.604.009 1.604.022 0 .171-.822 1.419-1.894 2.878-.936 1.27-1.068 1.472-1.288 1.929-.171.369-.18.391-.18.839 0 .439.009.475.158.791.114.237.277.461.589.8.233.264.444.475.466.475.018 0 .316.303.659.668.637.686 1.09 1.252 1.292 1.626l.114.211h-1.397c-1.547 0-1.806-.031-2.167-.264-.25-.163-.69-.615-1.283-1.323-.778-.923-1.261-1.274-1.903-1.375-.224-.035-.593.035-.844.158-.646.325-1.252 1.424-1.358 2.465-.018.163-.044.308-.066.321-.07.044-1.226-.119-1.723-.246C8.762 16 7.615 15.336 6.525 14.26c-1.529-1.507-2.641-3.375-4.135-6.943L1.893 6.13l1.235-.013c.681-.004 1.252.004 1.27.022.013.022.211.532.431 1.143 1.042 2.878 1.811 4.21 2.681 4.641.725.356 1.507.04 1.912-.773.352-.716.527-2.114.422-3.415-.053-.659-.185-1.384-.29-1.591-.119-.229-.141-.224 1.006-.193.584.013 1.165.044 1.283.062z" />
</svg>